<mxfile host="app.diagrams.net" modified="2022-08-27T23:59:39.929Z" agent="5.0 (Macintosh; Intel Mac OS X 10_15_7) AppleWebKit/605.1.15 (KHTML, like Gecko) Version/15.6.1 Safari/605.1.15" etag="2QuhepT61od_LUDtV4pN" version="20.2.7" type="github">
  <diagram id="DXugQdDJIEXXKW0OSHwm" name="PÃ¡gina-1">
    <mxGraphModel dx="786" dy="1160" grid="1" gridSize="10" guides="1" tooltips="1" connect="1" arrows="1" fold="1" page="1" pageScale="1" pageWidth="827" pageHeight="1169" math="0" shadow="0">
      <root>
        <mxCell id="0" />
        <mxCell id="1" parent="0" />
        <mxCell id="SrstcqNg_3DvP-Sc_EpI-1" value="" style="rounded=0;whiteSpace=wrap;html=1;" vertex="1" parent="1">
          <mxGeometry x="190" y="450" width="120" height="60" as="geometry" />
        </mxCell>
        <mxCell id="SrstcqNg_3DvP-Sc_EpI-2" value="" style="rounded=0;whiteSpace=wrap;html=1;" vertex="1" parent="1">
          <mxGeometry x="470" y="340" width="120" height="60" as="geometry" />
        </mxCell>
        <mxCell id="SrstcqNg_3DvP-Sc_EpI-3" value="" style="rounded=0;whiteSpace=wrap;html=1;" vertex="1" parent="1">
          <mxGeometry x="480" y="560" width="120" height="60" as="geometry" />
        </mxCell>
        <mxCell id="SrstcqNg_3DvP-Sc_EpI-4" value="Actor" style="shape=umlActor;verticalLabelPosition=bottom;verticalAlign=top;html=1;outlineConnect=0;" vertex="1" parent="1">
          <mxGeometry x="100" y="630" width="30" height="60" as="geometry" />
        </mxCell>
      </root>
    </mxGraphModel>
  </diagram>
</mxfile>
